<svg width="348" height="228" viewBox="0 0 348 228" fill="none" xmlns="http://www.w3.org/2000/svg">
<g clip-path="url(#clip0_1_396)">
<path d="M274.369 95.3378C272.242 102.89 266.61 109.676 268.284 117.889C269.138 122.03 271.823 126.189 272.852 130.348C276.112 143.537 262.565 152.76 257.02 164.122C256.654 164.888 256.305 165.671 255.992 166.489L236.359 167.707C236.254 166.245 236.08 164.784 235.836 163.305C234.371 154.221 230.431 144.599 233.412 136.421C235.696 130.209 241.781 125.58 245.094 119.751C248.564 113.643 248.86 106.213 245.931 98.9398C244.153 94.5548 241.241 90.1873 240.404 85.8023C238.87 77.7458 244.589 71.1684 250.098 65.2C257.665 57.0043 265.25 48.8261 272.817 40.6304C269.731 57.1435 279.146 78.3549 274.351 95.3378H274.369Z" fill="#417971"/>
<path d="M274.369 95.3378C272.242 102.89 266.61 109.676 268.284 117.889C269.138 122.03 271.823 126.189 272.852 130.348C276.112 143.537 262.565 152.76 257.02 164.122C256.654 164.888 256.305 165.671 255.992 166.489L236.359 167.707C236.254 166.245 236.08 164.784 235.836 163.305C234.371 154.221 230.431 144.599 233.412 136.421C235.696 130.209 241.781 125.58 245.094 119.751C248.564 113.643 248.86 106.213 245.931 98.9398C244.153 94.5548 241.241 90.1873 240.404 85.8023C238.87 77.7458 244.589 71.1684 250.098 65.2C257.665 57.0043 265.25 48.8261 272.817 40.6304C269.731 57.1435 279.146 78.3549 274.351 95.3378H274.369Z" fill="#7E9C61"/>
<path d="M239.358 165.932C239.358 165.932 239.323 165.932 239.306 165.932C239.218 165.915 239.149 165.81 239.183 165.723C239.253 165.427 239.323 165.114 239.393 164.801C239.497 164.331 239.602 163.861 239.724 163.409C239.829 162.922 240.038 162.487 240.23 162.069C240.299 161.913 240.369 161.756 240.439 161.599C242.531 154.221 245.478 147.122 248.32 140.249C248.86 138.944 249.418 137.587 249.976 136.247C249.872 135.812 250.011 135.516 250.151 135.203C250.168 135.168 250.185 135.116 250.203 135.081C253.411 127.268 255.294 118.863 256.305 107.849C256.305 107.623 256.305 107.396 256.305 107.205C256.305 106.996 256.323 106.805 256.305 106.579C256.305 106.579 256.305 106.579 256.305 106.561C256.462 104.612 256.532 102.751 256.584 100.854C256.584 99.9316 256.584 99.0094 256.567 98.1046C256.532 94.0328 256.48 90.2047 256.689 86.1504C256.951 83.0357 257.317 80.1994 257.875 76.9628C258.764 72.4213 259.845 67.5317 261.763 62.5378C261.78 62.4681 261.78 62.4333 261.78 62.3811C261.78 62.3115 261.78 62.2071 261.833 62.0679C263.262 58.3094 264.901 54.2551 267.168 50.0441C267.238 49.9049 267.272 49.8005 267.325 49.6961C267.36 49.5743 267.412 49.4525 267.499 49.2785C267.586 49.1393 267.656 48.9827 267.743 48.8609C267.952 48.4781 268.162 48.1127 268.423 47.7647C268.458 47.695 268.476 47.6428 268.493 47.5732C268.51 47.5036 268.528 47.4166 268.58 47.3122C268.58 47.3122 268.58 47.3122 268.58 47.2948C269.87 45.1198 271.213 42.8751 272.678 40.5956C272.73 40.5086 272.834 40.4912 272.922 40.5434C273.009 40.5956 273.026 40.7 272.974 40.787C271.509 43.0491 270.167 45.2938 268.877 47.4688C268.842 47.5384 268.824 47.608 268.807 47.6776C268.789 47.7472 268.772 47.8343 268.72 47.9387C268.72 47.9387 268.72 47.9561 268.702 47.9735C268.458 48.3215 268.266 48.6695 268.04 49.0523C267.97 49.1915 267.883 49.3307 267.796 49.4873C267.726 49.6091 267.691 49.7135 267.656 49.8353C267.621 49.9571 267.569 50.0789 267.482 50.2529C265.233 54.4465 263.594 58.4834 262.164 62.2245C262.129 62.2941 262.146 62.3289 262.146 62.3811C262.146 62.4507 262.146 62.5552 262.094 62.6944C260.176 67.6535 259.095 72.5257 258.223 77.0498C257.665 80.269 257.317 83.1053 257.055 86.2026C256.863 90.2395 256.898 94.0676 256.933 98.1394C256.933 99.0616 256.951 99.9838 256.951 100.906C256.881 102.803 256.828 104.665 256.672 106.631C256.672 106.857 256.672 107.083 256.672 107.275C256.672 107.483 256.654 107.675 256.672 107.901C256.672 107.901 256.672 107.919 256.672 107.936C255.66 119.003 253.76 127.442 250.552 135.29C250.534 135.342 250.517 135.377 250.499 135.411C250.36 135.725 250.273 135.951 250.36 136.281C250.36 136.316 250.36 136.351 250.36 136.386C249.802 137.743 249.226 139.118 248.686 140.458C245.844 147.331 242.897 154.413 240.822 161.773C240.822 161.773 240.822 161.773 240.822 161.791C240.753 161.947 240.683 162.121 240.596 162.278C240.404 162.678 240.212 163.096 240.108 163.548C239.968 163.983 239.881 164.453 239.776 164.923C239.707 165.236 239.637 165.567 239.567 165.862C239.55 165.949 239.48 166.002 239.393 166.002L239.358 165.932Z" fill="#0D0D0D"/>
<path d="M252.417 166.698L241.119 167.411C241.206 166.576 241.293 165.741 241.363 164.905C241.938 158.102 241.677 151.089 243.246 144.529C247.622 126.259 265.511 113.313 282.755 101.202C289.276 96.6255 295.797 92.0492 302.318 87.4728C306.834 84.3059 305.474 82.9835 309.327 79.3641C308.63 86.8638 305.701 94.346 301.516 100.941C299.319 104.421 296.477 107.623 294.995 111.381C292.519 117.663 293.984 125.145 290.793 131.166C285.284 141.571 267.708 144.843 259.322 153.873C255.852 157.615 254.108 162.174 252.4 166.715L252.417 166.698Z" fill="#708A54"/>
<path d="M235.104 152.951C235.104 152.951 234.947 152.882 234.929 152.812C234.929 152.708 234.982 152.621 235.069 152.603C238.434 152.029 240.788 149.28 243.054 146.617C243.856 145.678 244.693 144.703 245.565 143.833C247.622 141.78 250.081 140.179 252.487 138.631C254.353 137.413 256.288 136.16 257.997 134.715C261.083 132.088 263.541 128.747 265.93 125.528C266.941 124.171 267.97 122.761 269.051 121.421C274.7 114.392 281.849 108.615 288.753 103.029C294.734 98.209 300.906 93.215 306.102 87.4206C306.172 87.351 306.276 87.3336 306.346 87.4206C306.416 87.4902 306.433 87.5946 306.346 87.6642C301.133 93.476 294.943 98.47 288.963 103.307C282.058 108.876 274.927 114.635 269.312 121.648C268.249 122.987 267.203 124.379 266.209 125.754C263.82 128.991 261.344 132.349 258.223 134.994C256.497 136.455 254.562 137.726 252.679 138.944C250.308 140.492 247.849 142.076 245.827 144.094C244.972 144.947 244.135 145.921 243.333 146.861C241.014 149.576 238.626 152.377 235.138 152.969C235.138 152.969 235.121 152.969 235.104 152.969V152.951Z" fill="#0D0D0D"/>
<path d="M36.3884 93.9284C38.6027 101.741 44.4785 108.771 42.7175 117.297C41.8283 121.595 39.0386 125.893 37.975 130.191C34.575 143.851 48.6805 153.404 54.4518 165.166C54.8354 165.949 55.1841 166.767 55.5154 167.603L75.9501 168.873C76.0721 167.359 76.2465 165.845 76.4906 164.314C78.0075 154.9 82.1223 144.93 79.0013 136.473C76.63 130.035 70.3009 125.25 66.8486 119.212C63.2394 112.895 62.9255 105.204 65.9942 97.6696C67.8424 93.128 70.8763 88.6039 71.748 84.0623C73.3347 75.71 67.3891 68.9064 61.6527 62.7292C53.7718 54.2377 45.8908 45.7636 38.0099 37.2721C41.218 54.3769 31.4366 76.3364 36.4232 93.9284H36.3884Z" fill="#417971"/>
<path d="M36.3884 93.9284C38.6027 101.741 44.4785 108.771 42.7175 117.297C41.8283 121.595 39.0386 125.893 37.975 130.191C34.575 143.851 48.6805 153.404 54.4518 165.166C54.8354 165.949 55.1841 166.767 55.5154 167.603L75.9501 168.873C76.0721 167.359 76.2465 165.845 76.4906 164.314C78.0075 154.9 82.1223 144.93 79.0013 136.473C76.63 130.035 70.3009 125.25 66.8486 119.212C63.2394 112.895 62.9255 105.204 65.9942 97.6696C67.8424 93.128 70.8763 88.6039 71.748 84.0623C73.3347 75.71 67.3891 68.9064 61.6527 62.7292C53.7718 54.2377 45.8908 45.7636 38.0099 37.2721C41.218 54.3769 31.4366 76.3364 36.4232 93.9284H36.3884Z" fill="#7E9C61"/>
<path d="M72.8116 167.046C72.8116 167.046 72.8465 167.046 72.8639 167.046C72.9685 167.028 73.0208 166.924 73.0034 166.82C72.9162 166.506 72.8465 166.193 72.7767 165.862C72.6721 165.375 72.5675 164.888 72.428 164.418C72.3234 163.914 72.0968 163.461 71.905 163.026C71.8178 162.852 71.748 162.696 71.6783 162.539C69.4988 154.9 66.4476 147.54 63.4835 140.423C62.9255 139.066 62.3327 137.656 61.7574 136.264C61.862 135.812 61.7225 135.516 61.583 135.185C61.5656 135.15 61.5481 135.098 61.5307 135.063C58.2005 126.972 56.2477 118.272 55.1841 106.857C55.1841 106.613 55.1841 106.405 55.1841 106.178C55.1841 105.97 55.1666 105.761 55.1841 105.535C55.1841 105.535 55.1841 105.535 55.1841 105.517C55.0272 103.499 54.9574 101.567 54.8877 99.601C54.8877 98.644 54.8877 97.7043 54.9051 96.7473C54.94 92.5364 54.9923 88.569 54.7831 84.3581C54.5041 81.1216 54.1379 78.1983 53.5626 74.84C52.6385 70.1244 51.5226 65.0608 49.5175 59.8929C49.4826 59.8232 49.5 59.7885 49.5 59.7363C49.5 59.6667 49.5 59.5448 49.4477 59.4056C47.9657 55.5253 46.257 51.3144 43.9032 46.9642C43.816 46.825 43.7811 46.7206 43.7462 46.5988C43.7114 46.477 43.6591 46.3378 43.5719 46.1812C43.4847 46.0246 43.3975 45.8854 43.3278 45.7462C43.1011 45.346 42.8919 44.9805 42.6303 44.6151C42.5955 44.5455 42.578 44.4759 42.5606 44.4063C42.5432 44.3367 42.5257 44.2497 42.4734 44.1453C42.4734 44.1453 42.4734 44.1453 42.4734 44.1279C41.1309 41.8658 39.736 39.5516 38.2017 37.1851C38.1494 37.0981 38.0273 37.0807 37.9401 37.1329C37.853 37.1851 37.8355 37.3069 37.8878 37.3939C39.4222 39.743 40.7996 42.0572 42.1421 44.3019C42.177 44.3889 42.1944 44.4411 42.2119 44.5107C42.2293 44.5803 42.2468 44.6673 42.2991 44.7717C42.2991 44.7717 42.2991 44.7891 42.3165 44.8065C42.578 45.172 42.7698 45.52 43.0139 45.9376C43.1011 46.0768 43.1709 46.2334 43.2755 46.3726C43.3452 46.5118 43.3801 46.6162 43.4324 46.7206C43.4673 46.8424 43.5196 46.9816 43.6067 47.1382C45.9431 51.471 47.6518 55.6645 49.1339 59.5448C49.1687 59.6144 49.1513 59.6493 49.1513 59.7015C49.1513 59.7711 49.1513 59.8929 49.2036 60.0321C51.2087 65.1652 52.3246 70.2114 53.2313 74.9096C53.8067 78.2505 54.1728 81.1738 54.4518 84.3929C54.661 88.569 54.6087 92.5364 54.5738 96.7473C54.5738 97.7043 54.5564 98.644 54.5564 99.601C54.6261 101.567 54.6959 103.499 54.8528 105.517C54.8528 105.761 54.8528 105.987 54.8528 106.196C54.8528 106.405 54.8702 106.613 54.8528 106.84C54.8528 106.84 54.8528 106.857 54.8528 106.874C55.9164 118.341 57.8866 127.077 61.2343 135.203C61.2517 135.255 61.2692 135.29 61.2866 135.342C61.4261 135.655 61.5307 135.899 61.4435 136.247C61.4435 136.281 61.4435 136.334 61.4435 136.368C62.0189 137.778 62.6117 139.205 63.1871 140.579C66.1512 147.696 69.2024 155.039 71.3644 162.661C71.3644 162.661 71.3644 162.661 71.3644 162.678C71.4342 162.852 71.5214 163.026 71.5911 163.183C71.7829 163.6 71.9921 164.035 72.0967 164.505C72.2362 164.958 72.3409 165.445 72.4455 165.915C72.5152 166.245 72.585 166.576 72.6721 166.889C72.6896 166.976 72.7767 167.028 72.8465 167.028L72.8116 167.046Z" fill="#0D0D0D"/>
<path d="M59.2291 167.846L70.9808 168.577C70.8761 167.724 70.789 166.854 70.7192 165.984C70.1264 158.937 70.3879 151.681 68.749 144.877C64.1808 125.963 45.5943 112.547 27.6355 100.001C20.853 95.2683 14.0531 90.5179 7.27056 85.785C2.56291 82.4963 3.99264 81.139 -0.0175781 77.3805C0.714723 85.1412 3.76598 92.9018 8.10748 99.7403C10.3916 103.342 13.3556 106.666 14.89 110.546C17.4705 117.054 15.9536 124.797 19.2664 131.027C24.9853 141.798 43.2928 145.208 52.0107 154.552C55.6199 158.432 57.4332 163.148 59.2116 167.846H59.2291Z" fill="#708A54"/>
<path d="M77.2402 153.612C77.3274 153.612 77.4146 153.543 77.4146 153.456C77.4146 153.351 77.3623 153.264 77.2577 153.247C73.7531 152.655 71.3121 149.802 68.9408 147.035C68.1039 146.061 67.2321 145.051 66.3429 144.147C64.2157 142.024 61.6352 140.371 59.1419 138.752C57.2066 137.5 55.184 136.194 53.4056 134.698C50.1974 131.984 47.6343 128.521 45.1585 125.18C44.1123 123.77 43.0313 122.309 41.9154 120.917C36.0396 113.626 28.612 107.657 21.411 101.863C15.1864 96.8691 8.77008 91.7012 3.365 85.6979C3.29525 85.6283 3.1732 85.6109 3.10346 85.6979C3.03372 85.7675 3.01628 85.8894 3.10346 85.959C8.52598 91.9796 14.9598 97.1475 21.1843 102.159C28.3679 107.936 35.7955 113.904 41.6364 121.143C42.7523 122.518 43.8334 123.979 44.8795 125.389C47.3728 128.747 49.9359 132.227 53.1963 134.959C54.9922 136.473 57.0148 137.778 58.9676 139.048C61.4435 140.649 63.9891 142.302 66.0988 144.39C66.988 145.278 67.8598 146.287 68.6793 147.261C71.0854 150.063 73.5787 152.969 77.2054 153.595C77.2054 153.595 77.2228 153.595 77.2402 153.595V153.612Z" fill="#0D0D0D"/>
<path d="M283.435 197.236C292.659 196.992 302.004 196.731 310.862 195.287C315.064 194.608 319.754 193.234 320.19 190.885C320.748 187.892 314.209 186.152 308.804 185.403C280.611 181.506 251.284 180.514 222.114 179.957C170.504 178.948 118.79 179.226 67.1798 180.757C52.7082 181.192 12.7803 181.088 4.41115 189.405C-8.50874 202.23 43.8682 199.08 52.6384 199.324C101.86 200.664 151.22 200.281 200.494 199.306C228.147 198.75 255.8 198.001 283.435 197.271V197.236Z" fill="#F9F9F9"/>
<path d="M257.735 42.9098C255.747 43.5188 255.242 44.0234 254.632 46.0071C254.021 44.0234 253.516 43.5188 251.528 42.9098C253.516 42.3008 254.021 41.7962 254.632 39.8125C255.242 41.7962 255.747 42.3008 257.735 42.9098Z" fill="#FF2C6D"/>
<path d="M85.2259 33.7572C81.948 34.749 81.1111 35.5321 80.0824 38.699C79.0537 35.5321 78.2342 34.7316 74.9388 33.7572C78.2168 32.7654 79.0537 31.9823 80.0824 28.8154C81.1111 31.9823 81.9306 32.7828 85.2259 33.7572Z" fill="#FF2C6D"/>
<path d="M157.567 2.67969C155.841 3.21911 155.405 3.65412 154.882 5.35938C154.341 3.63672 153.905 3.20171 152.197 2.67969C153.923 2.14027 154.359 1.70526 154.882 0C155.422 1.72266 155.858 2.15767 157.567 2.67969Z" fill="#FF2C6D"/>
<path d="M301.76 123.892C299.79 124.501 299.302 125.006 298.674 126.972C298.064 125.006 297.558 124.519 295.588 123.892C297.558 123.283 298.047 122.779 298.674 120.812C299.285 122.779 299.79 123.266 301.76 123.892Z" fill="#FF2C6D"/>
<path d="M15.7968 130.835C14.2275 131.322 13.8265 131.723 13.3383 133.289C12.8501 131.723 12.4491 131.322 10.8799 130.835C12.4491 130.348 12.8501 129.948 13.3383 128.382C13.8265 129.948 14.2275 130.348 15.7968 130.835Z" fill="#FF2C6D"/>
<path d="M143.653 166.106L139.381 181.088C138.649 183.663 140.584 186.238 143.287 186.238H182.448C185.272 186.238 187.225 183.42 186.249 180.792L180.791 166.123H143.67L143.653 166.106Z" fill="#BCBCBC"/>
<path d="M207.468 146.13H58.3051V157.371C58.3051 165.236 62.3966 169.169 70.5798 169.169H245.826C254.01 169.169 258.101 165.236 258.101 157.371V146.13H207.45H207.468Z" fill="#D1D1D1"/>
<path d="M63.0999 48.8086H253.324C255.974 48.8086 258.119 50.9489 258.119 53.5938V159.511H58.3051V53.5938C58.3051 50.9489 60.4497 48.8086 63.0999 48.8086Z" fill="#E8E8E8"/>
<path d="M250.691 55.8384H65.7327V151.437H250.691V55.8384Z" fill="#F9F5F5"/>
<path d="M250.691 55.8384H65.7327V64.5039H250.691V55.8384Z" fill="#D1D1D1"/>
<path d="M76.1243 62.033C77.1836 62.033 78.0423 61.176 78.0423 60.1189C78.0423 59.0618 77.1836 58.2048 76.1243 58.2048C75.0651 58.2048 74.2064 59.0618 74.2064 60.1189C74.2064 61.176 75.0651 62.033 76.1243 62.033Z" fill="white"/>
<path d="M82.0002 62.033C83.0594 62.033 83.9181 61.176 83.9181 60.1189C83.9181 59.0618 83.0594 58.2048 82.0002 58.2048C80.941 58.2048 80.0823 59.0618 80.0823 60.1189C80.0823 61.176 80.941 62.033 82.0002 62.033Z" fill="white"/>
<path d="M70.0567 62.033C71.116 62.033 71.9747 61.176 71.9747 60.1189C71.9747 59.0618 71.116 58.2048 70.0567 58.2048C68.9975 58.2048 68.1388 59.0618 68.1388 60.1189C68.1388 61.176 68.9975 62.033 70.0567 62.033Z" fill="white"/>
<path d="M192.473 180.844H132.86C131.137 180.844 129.739 182.239 129.739 183.959V186.674C129.739 188.394 131.137 189.788 132.86 189.788H192.473C194.197 189.788 195.594 188.394 195.594 186.674V183.959C195.594 182.239 194.197 180.844 192.473 180.844Z" fill="#D1D1D1"/>
<path d="M156.381 33.7049L106.742 76.2667L107.666 95.5292C107.666 97.8261 110.438 130.4 113.088 130.4L159.432 99.4443L201.191 127.216C203.824 127.216 208.932 96.956 208.932 94.6591L212.019 76.2319L162.327 33.7223C160.583 32.5216 158.107 32.5216 156.364 33.7223L156.381 33.7049Z" fill="#5454ED"/>
<path d="M199.308 48.9478H119.226C117.088 48.9478 115.355 50.6772 115.355 52.8107V134.211C115.355 136.344 117.088 138.074 119.226 138.074H199.308C201.446 138.074 203.179 136.344 203.179 134.211V52.8107C203.179 50.6772 201.446 48.9478 199.308 48.9478Z" fill="white"/>
<path d="M141.892 100.871H123.271C122.556 100.871 121.963 100.279 121.963 99.566V80.9822C121.963 80.2687 122.556 79.6771 123.271 79.6771H141.892C142.607 79.6771 143.2 80.2687 143.2 80.9822V99.566C143.2 100.279 142.607 100.871 141.892 100.871ZM124.578 98.261H140.584V82.2872H124.578V98.261Z" fill="#C0C0FF"/>
<path d="M198.837 95.79H152.371C151.656 95.79 151.063 95.1984 151.063 94.485C151.063 93.7716 151.656 93.1799 152.371 93.1799H198.837C199.552 93.1799 200.145 93.7716 200.145 94.485C200.145 95.1984 199.552 95.79 198.837 95.79Z" fill="#7A76FF"/>
<path d="M131.308 96.6602C131.308 96.6602 131.291 96.6602 131.274 96.6602C130.803 96.6602 130.367 96.3817 130.14 95.9467L127.856 91.5096C127.525 90.8658 127.786 90.0827 128.414 89.7521C129.059 89.4215 129.844 89.6825 130.175 90.3089L131.361 92.6058L136.034 84.5319C136.4 83.9055 137.184 83.6967 137.812 84.0447C138.44 84.4101 138.649 85.1932 138.3 85.8196L132.442 95.9815C132.215 96.3817 131.779 96.6428 131.308 96.6428V96.6602Z" fill="#7A76FF"/>
<path d="M175.735 84.7755H152.371C151.658 84.7755 151.081 85.352 151.081 86.0632C151.081 86.7743 151.658 87.3508 152.371 87.3508H175.735C176.447 87.3508 177.025 86.7743 177.025 86.0632C177.025 85.352 176.447 84.7755 175.735 84.7755Z" fill="#C0C0FF"/>
<path d="M141.892 76.7191H123.271C122.556 76.7191 121.963 76.1275 121.963 75.414V56.8302C121.963 56.1168 122.556 55.5251 123.271 55.5251H141.892C142.607 55.5251 143.2 56.1168 143.2 56.8302V75.414C143.2 76.1275 142.607 76.7191 141.892 76.7191ZM124.578 74.109H140.584V58.1352H124.578V74.109Z" fill="#C0C0FF"/>
<path d="M187.73 63.2336H152.214C151.586 63.2336 151.063 62.642 151.063 61.9286C151.063 61.2152 151.569 60.6235 152.214 60.6235H187.73C188.358 60.6235 188.881 61.2152 188.881 61.9286C188.881 62.642 188.376 63.2336 187.73 63.2336Z" fill="#C0C0FF"/>
<path d="M196.047 71.638H152.301C151.621 71.638 151.063 71.0464 151.063 70.333C151.063 69.6196 151.621 69.028 152.301 69.028H196.047C196.727 69.028 197.285 69.6196 197.285 70.333C197.285 71.0464 196.727 71.638 196.047 71.638Z" fill="#7A76FF"/>
<path d="M131.308 72.5255C131.308 72.5255 131.291 72.5255 131.274 72.5255C130.803 72.5255 130.367 72.2471 130.14 71.8121L127.856 67.3749C127.525 66.7311 127.786 65.9481 128.414 65.6175C129.059 65.2869 129.844 65.5479 130.175 66.1743L131.361 68.4712L136.034 60.3973C136.4 59.7709 137.184 59.5621 137.812 59.9101C138.44 60.2755 138.649 61.0585 138.3 61.6849L132.442 71.8469C132.215 72.2471 131.779 72.5081 131.308 72.5081V72.5255Z" fill="#7A76FF"/>
<path d="M160.461 108.458L184.418 84.9322C190.712 78.755 199.691 75.2227 209.107 75.2227C211.321 75.2227 213.117 76.6321 213.117 78.3548V141.223C213.117 142.946 210.118 145.591 207.904 145.591H194.286L160.444 112.373C159.31 111.259 159.31 109.571 160.444 108.475L160.461 108.458Z" fill="#7A76FF"/>
<path d="M158.421 108.423L134.464 84.8974C128.17 78.7202 119.191 75.1879 109.775 75.1879C107.561 75.1879 105.765 76.5973 105.765 78.32V141.554C105.765 143.276 108.328 145.573 110.543 145.573L124.578 145.538L158.421 112.321C159.554 111.207 159.554 109.519 158.421 108.423Z" fill="#7A76FF"/>
<path d="M213.1 128.364V141.919C213.1 143.938 210.955 145.591 208.322 145.591H110.543C107.91 145.591 105.765 143.955 105.765 141.919V128.364L156.451 97.391C157.27 96.8864 158.264 96.6254 159.258 96.5906C160.374 96.5558 161.49 96.8342 162.414 97.391L213.1 128.364Z" fill="#C0C0FF"/>
<path d="M168.935 100.088L213.1 122.605V128.364L168.133 100.871L168.935 100.088Z" fill="#5454ED"/>
<path d="M149.947 100.088L105.765 122.605V128.364L150.732 100.871L149.947 100.088Z" fill="#5454ED"/>
<path d="M234.336 25.6484L207.695 25.5266C204.661 25.5266 202.15 27.8409 201.923 30.8686L201.034 43.1534C201.034 43.31 201.034 43.4492 201.034 43.5884L199.134 56.3257L205.742 49.2088C206.09 49.2784 206.457 49.3132 206.823 49.3132L234.301 49.174C237.457 49.174 240.02 46.5987 240.038 43.4492L240.09 31.4254C240.09 28.2585 237.544 25.6658 234.354 25.6484H234.336Z" fill="#7A76FF"/>
<path d="M212.489 40.1953C214.126 40.1953 215.453 38.8709 215.453 37.2372C215.453 35.6034 214.126 34.2791 212.489 34.2791C210.852 34.2791 209.525 35.6034 209.525 37.2372C209.525 38.8709 210.852 40.1953 212.489 40.1953Z" fill="white"/>
<path d="M220.928 40.2302C222.565 40.2302 223.892 38.9058 223.892 37.2721C223.892 35.6384 222.565 34.314 220.928 34.314C219.291 34.314 217.964 35.6384 217.964 37.2721C217.964 38.9058 219.291 40.2302 220.928 40.2302Z" fill="white"/>
<path d="M229.367 40.2823C231.004 40.2823 232.331 38.9579 232.331 37.3242C232.331 35.6905 231.004 34.3661 229.367 34.3661C227.73 34.3661 226.403 35.6905 226.403 37.3242C226.403 38.9579 227.73 40.2823 229.367 40.2823Z" fill="white"/>
<path d="M51.6445 147.348C51.6445 147.348 55.2537 197.375 50.8076 217.647H48.5933L44.7051 182.358L39.1606 157.075C39.1606 157.075 38.0447 158.137 38.3236 160.764L34.9934 182.358C34.9934 182.358 30.0068 206.841 30.0068 217.647H27.2345L22.5269 162.887L23.6427 148.932C23.6427 148.932 46.6579 151.037 51.662 147.348H51.6445Z" fill="#0C2344"/>
<path d="M42.2119 78.8944L44.1472 81.5218L43.3103 93.8937C43.3103 93.8937 36.3709 98.8876 31.6632 93.8937L30.5474 86.2548V80.9824L33.3196 78.877C33.3196 78.877 38.3063 80.4604 42.1944 78.877L42.2119 78.8944Z" fill="#FFDAD2" stroke="#FFDAD2" stroke-width="0.25" stroke-miterlimit="10"/>
<path d="M30.5647 86.2722C30.5647 86.2722 29.1699 84.4277 28.6293 86.2722C28.0714 88.1166 29.6057 90.5701 31.0529 89.6131L30.5647 86.2722Z" fill="#FFDAD2"/>
<path d="M43.8682 86.0112C43.8682 86.0112 45.4723 84.1667 46.1 86.0112C46.7451 87.8556 44.9841 90.3091 43.2928 89.3521L43.8508 86.0112H43.8682Z" fill="#FFDAD2"/>
<path d="M40.7821 95.2683C40.7821 95.2683 40.3986 99.5663 43.4498 99.5663C43.4498 99.5663 39.0211 107.466 30.9658 99.5663C30.9658 99.5663 34.6448 99.1486 33.9125 95.5467C33.9125 95.5467 36.4232 97.2868 40.7647 95.2683H40.7821Z" fill="#FFDAD2" stroke="#FFDAD2" stroke-width="0.25" stroke-miterlimit="10"/>
<path d="M29.8509 87.9897C30.0743 87.9309 30.1698 87.5592 30.0642 87.1597C29.9586 86.7601 29.6918 86.4839 29.4683 86.5428C29.2449 86.6016 29.1494 86.9732 29.255 87.3728C29.3606 87.7723 29.6274 88.0485 29.8509 87.9897Z" fill="#EAA9A4"/>
<path d="M45.0482 87.0966C45.1303 86.6915 45.0132 86.3261 44.7867 86.2804C44.5601 86.2347 44.31 86.526 44.2279 86.931C44.1459 87.3361 44.263 87.7015 44.4895 87.7472C44.716 87.7929 44.9662 87.5016 45.0482 87.0966Z" fill="#EAA9A4"/>
<path d="M43.8683 86.0112L44.7749 85.3151C44.7749 85.3151 45.2457 83.6447 45.8036 81.0172L44.4088 76.0232C44.4088 76.0232 42.4734 74.4398 40.5206 74.4398C40.5206 74.4398 40.5206 74.1788 41.9155 73.6567C41.9155 73.6567 40.5206 73.3957 39.1432 73.9177C39.1432 73.9177 38.3063 74.1788 38.8642 73.1347C38.8642 73.1347 38.8642 72.6127 38.3063 73.1347C38.3063 73.1347 35.813 74.4572 35.255 74.4572C35.255 74.4572 35.534 73.9352 35.813 73.9352L31.9248 75.2576C31.9248 75.2576 29.9894 78.1461 29.7104 79.4685L30.5474 86.307L30.6868 80.9128L33.4591 78.8073C33.4591 78.8073 38.1668 80.6518 42.3339 78.8073L44.2693 81.4348L43.8508 86.046L43.8683 86.0112Z" fill="#684D2A"/>
<path d="M43.0487 84.4103L42.2118 83.8883L39.1605 84.4103V84.9323C39.1605 84.9323 42.2118 83.8709 43.0487 84.4103Z" fill="#684D2A"/>
<path d="M32.2212 84.3581L33.0581 83.8361L36.1094 84.3581V84.8801C36.1094 84.8801 33.0581 83.8187 32.2212 84.3581Z" fill="#684D2A"/>
<path d="M40.7472 86.7071C41.1902 86.7071 41.5493 86.3722 41.5493 85.9589C41.5493 85.5457 41.1902 85.2107 40.7472 85.2107C40.3043 85.2107 39.9452 85.5457 39.9452 85.9589C39.9452 86.3722 40.3043 86.7071 40.7472 86.7071Z" fill="#0E357A"/>
<path d="M34.4007 86.7071C34.8436 86.7071 35.2027 86.3722 35.2027 85.9589C35.2027 85.5457 34.8436 85.2107 34.4007 85.2107C33.9577 85.2107 33.5986 85.5457 33.5986 85.9589C33.5986 86.3722 33.9577 86.7071 34.4007 86.7071Z" fill="#0E357A"/>
<path d="M37.6088 85.524C37.6088 85.524 39.1606 89.1955 37.6088 90.2918C37.6088 90.2918 36.057 90.6572 36.4581 87.7165C36.4581 87.7165 36.8416 85.5066 37.6088 85.5066V85.524Z" fill="#EAA9A4"/>
<path d="M38.2889 88.8823C38.2889 88.8823 37.8878 90.5528 36.6499 89.7176C36.6499 89.7176 37.3125 91.1792 38.0448 89.8568C38.0448 89.8568 38.2191 89.5957 38.3063 88.8823H38.2889Z" fill="#D88C8B"/>
<path d="M33.895 95.6511C33.895 95.6511 37.0509 97.0953 41.0611 95.4423V96.2253C41.0611 96.2253 35.9001 97.2867 33.895 95.6337V95.6511Z" fill="#EAA9A4"/>
<path d="M43.3103 99.7055L49.6918 102.333C49.6918 102.333 51.3482 103.116 51.3482 103.916L58.2876 110.755C58.2876 110.755 56.6312 116.549 53.301 117.593L49.4128 114.966L49.9708 140.249C49.9708 140.249 51.6272 143.137 51.6272 145.243L51.3482 147.087L47.1811 149.454C47.1811 149.454 43.8508 153.143 36.6499 152.342C36.6499 152.342 26.6592 148.653 23.6079 148.914C23.6079 148.914 23.05 126.276 22.2131 122.065V120.221C22.2131 120.221 16.1106 117.854 15.5526 116.793L21.3762 103.099L30.8089 99.6707C30.8089 99.6707 37.1904 105.204 43.2929 99.6707L43.3103 99.7055Z" fill="#7FE4FF" stroke="#7FE4FF" stroke-width="1.07" stroke-miterlimit="10"/>
<path d="M77.2925 99.5663L76.7346 101.672L73.4044 119.055C73.4044 119.055 71.748 123.788 62.5942 120.638L54.382 117.071L57.9563 111.764L63.9891 114.844C63.9891 114.844 68.1562 115.905 69.2546 112.739C69.2546 112.739 72.8638 104.578 72.5849 99.5663" fill="#FFDAD2"/>
<path d="M77.2925 99.5663L76.7346 101.672L73.4043 119.055C73.4043 119.055 71.748 123.788 62.5942 120.638L54.382 117.071L57.9563 111.764L63.9891 114.844C63.9891 114.844 68.1562 115.905 69.2546 112.739C69.2546 112.739 72.8638 104.578 72.5849 99.5663" stroke="#FFDAD2" stroke-width="0.25" stroke-miterlimit="10"/>
<path d="M24.8284 145.138L39.8929 146.965C40.5206 147.035 41.096 146.617 41.1832 146.026L44.0426 124.693C44.1298 124.101 43.6765 123.544 43.0488 123.475L27.9843 121.648C27.3566 121.578 26.7812 121.996 26.6941 122.587L23.8346 143.92C23.7474 144.512 24.2007 145.069 24.8284 145.138Z" fill="#3479F3"/>
<path d="M49.5523 115.105C49.5523 115.105 52.3246 111.416 50.6682 108.266C50.6682 108.266 49.5523 113.26 48.1749 113.539C48.1749 113.539 49.5697 130.661 47.6169 134.872C47.6169 134.872 45.6816 144.616 43.4498 144.877C43.4498 144.877 45.6641 145.939 47.338 141.989C47.338 141.989 48.7328 137.256 48.4539 141.206C48.4539 141.206 46.4139 149.314 42.1595 152.116C42.1595 152.116 43.1883 152.273 47.338 149.645L51.2261 147.279C51.2261 147.279 52.621 145.956 50.1102 140.44L49.5523 115.157V115.105Z" fill="#56D2EF"/>
<path d="M22.3874 120.36L23.2243 121.143C23.2243 121.143 28.211 112.721 27.932 111.138C27.932 111.138 28.7689 112.721 27.932 115.088L26.8161 116.149C26.8161 116.149 28.2109 116.41 29.8673 115.366C29.8673 115.366 30.4253 117.21 27.0951 117.471L26.2581 117.732L25.1423 122.465C25.1423 122.465 24.0264 122.204 24.0264 123.527L22.7361 127.268L22.3525 120.36H22.3874Z" fill="#56D2EF"/>
<path d="M26.7986 141.154L34.4354 142.076L35.6211 133.184L27.9842 132.262L26.7986 141.154Z" fill="#FFFDFD"/>
<path d="M28.054 131.879L35.7606 132.819L35.8303 132.297L28.1237 131.357L28.054 131.879Z" fill="#FFFDFD"/>
<path d="M22.3874 120.36L19.3361 133.254C19.3361 133.254 28.7689 137.726 35.9698 136.421L37.6262 132.993L39.8406 131.148L43.1708 130.626C43.1708 130.626 43.4498 131.688 42.6129 132.21C42.6129 132.21 39.5616 132.993 39.8406 134.054C39.8406 134.054 43.1708 134.315 42.8918 133.271L44.2867 133.793V135.638L43.4498 139.849C43.4498 139.849 37.3473 140.91 34.296 140.632C34.296 140.632 19.5977 139.57 18.2028 138.265C18.2028 138.265 12.6582 135.899 12.3793 134.315L13.7741 125.632L15.7095 116.949L22.37 120.377L22.3874 120.36Z" fill="#FFDAD2" stroke="#FFDAD2" stroke-width="0.5" stroke-miterlimit="10"/>
<path d="M22.2479 122.083L15.5874 117.071L22.5268 120.499L22.2479 122.083Z" fill="#EAA9A4"/>
<path d="M58.2876 111.277L56.2999 117.906L54.4169 117.071" fill="#EAA9A4"/>
<path d="M29.9022 217.438L28.8038 223.58H26.8859V217.438H29.9022Z" fill="#FFE5DC"/>
<path d="M48.4539 217.438L49.3082 222.432H50.7902V217.438H48.4539Z" fill="#FFE5DC"/>
<path d="M29.7279 218.412L26.8859 217.438H29.9022L29.7279 218.412Z" fill="#F3B09C"/>
<path d="M50.7902 218.412L48.4539 217.438H50.7902V218.412Z" fill="#F3B09C"/>
<path d="M53.4753 220.831C53.4753 220.831 51.4528 222.449 47.4251 222.449L45.821 226.33C45.821 226.33 56.7009 227.617 62.7337 226.33L56.2825 223.737L53.4579 220.831H53.4753Z" fill="#228399"/>
<path d="M45.821 226.904C45.821 226.904 55.6548 229.148 62.7337 226.904V226.26C62.7337 226.26 51.3307 227.217 45.821 226.26V226.904Z" fill="#0B3F51"/>
<path d="M25.0376 221.057C25.0376 221.057 26.9032 222.641 30.6519 222.641L32.1514 226.451C32.1514 226.451 22.0386 227.722 16.4243 226.451L22.4222 223.911L25.0376 221.057Z" fill="#228399"/>
<path d="M32.1514 227.026C32.1514 227.026 23.015 229.218 16.4243 227.026V226.399C16.4243 226.399 27.0252 227.339 32.1514 226.399V227.026Z" fill="#0B3F51"/>
<path d="M35.4119 92.2754L39.2477 92.171C39.2477 92.171 38.7944 93.2847 37.2601 93.4413C35.7257 93.5979 35.4119 92.2754 35.4119 92.2754Z" fill="#EAA9A4"/>
<path d="M72.0792 103.307C72.149 102.072 71.7305 102.037 71.5736 100.523C71.4341 99.1661 71.6608 98.122 71.748 97.8436C71.8351 97.5652 71.9921 96.9736 72.0444 96.2428C72.0967 95.5119 72.0792 94.7985 72.0444 94.1199C72.0095 93.4065 71.9223 92.8496 71.8351 91.997C71.748 91.2314 71.7131 90.344 71.7131 89.7523C71.7131 89.1607 71.9398 88.7953 72.3408 88.8301C72.7418 88.8649 72.8813 89.3869 72.9336 90.1525C72.9859 90.9182 73.0905 91.6316 73.1777 92.0318C73.2649 92.432 73.4044 93.7023 73.5961 94.1199C73.8402 94.6245 74.0844 94.4853 74.0844 94.4853C74.189 93.9633 74.2238 93.1106 74.2413 92.2232C74.2413 91.6838 74.2761 91.1444 74.2936 90.3962C74.311 89.6479 74.3633 88.8649 74.5202 88.5691C74.6772 88.2733 75.0433 88.1167 75.3746 88.3255C75.7059 88.5169 75.6884 89.0563 75.671 89.6305C75.6536 90.2569 75.6361 90.2395 75.6361 90.5006C75.6361 90.7616 75.6361 91.7882 75.6013 92.345C75.5838 92.9018 75.5315 94.3461 75.5664 94.5549C75.6013 94.7637 77.1879 96.7474 77.9725 97.0084C78.0248 98.0872 77.8853 98.5222 77.8156 98.9224C77.7459 99.3227 77.4669 100.262 77.2402 100.906C76.9961 101.567 76.63 101.863 76.5254 102.333C76.4556 102.646 76.473 102.89 76.4905 103.307" fill="#FFDAD2"/>
<path d="M75.8628 94.3634C76.0371 94.0328 76.4905 94.1894 76.7171 94.259C76.9438 94.3286 77.1879 94.5374 77.1879 94.9202C77.1879 95.3031 77.0658 95.6337 76.8217 96.1209C76.5776 96.6081 76.2812 97.4607 76.0894 98.0176C75.8802 98.5744 75.6361 98.8528 75.113 98.7658C74.59 98.6788 74.5551 98.2438 74.7295 97.7565C74.9212 97.2867 75.2525 96.2253 75.3746 95.9469C75.4792 95.6685 75.7756 94.5548 75.8802 94.3634H75.8628Z" fill="#FFD6D2"/>
<path d="M76.8218 96.1209C76.6823 96.4341 76.5951 96.6777 76.4382 97.0779C76.3859 97.2171 76.3336 97.3737 76.2638 97.5477C76.2115 97.7218 76.1418 97.8958 76.072 98.0698C76.0372 98.1568 76.0023 98.2438 75.95 98.3482C75.8454 98.5396 75.7059 98.7136 75.5141 98.7832C75.4095 98.818 75.3049 98.8354 75.2002 98.818C75.0956 98.818 74.9736 98.7832 74.8864 98.7484C74.7818 98.6962 74.712 98.6266 74.6597 98.5222C74.5726 98.3482 74.59 98.122 74.6597 97.9306C74.6946 97.8436 74.7295 97.7566 74.7644 97.6695C74.7992 97.5825 74.8341 97.4955 74.8515 97.4085C74.9038 97.2345 74.9736 97.0779 75.0259 96.9387C75.1305 96.6429 75.2177 96.3993 75.27 96.2427C75.3397 96.0687 75.3746 95.9817 75.3746 95.9817C75.3746 95.9817 75.3746 95.9991 75.3572 96.0513C75.3572 96.1035 75.3223 96.1557 75.2874 96.2427C75.2351 96.4167 75.1479 96.6603 75.0608 96.9561C75.0084 97.0953 74.9561 97.2519 74.9038 97.4259C74.869 97.5129 74.8515 97.5999 74.8167 97.6869C74.7818 97.7739 74.7469 97.861 74.7295 97.948C74.6772 98.122 74.6597 98.3482 74.7295 98.5048C74.7818 98.5918 74.8341 98.6614 74.9387 98.6962C75.0259 98.731 75.1305 98.7658 75.2351 98.7658C75.3397 98.7658 75.4443 98.7658 75.5315 98.731C75.7233 98.6614 75.8628 98.5048 75.95 98.3308C76.0023 98.2438 76.0372 98.1568 76.072 98.0698C76.1418 97.8958 76.2115 97.7218 76.2638 97.5477C76.3161 97.3737 76.3859 97.2345 76.4382 97.0779C76.63 96.5559 76.752 96.3123 76.8392 96.1383L76.8218 96.1209Z" fill="#EFC1BF"/>
<g style="mix-blend-mode:screen">
<path d="M75.7756 97.9306C75.7408 98.2438 75.6536 98.6614 75.4269 98.731C75.1828 98.8006 74.8341 98.6266 74.7121 98.47C74.59 98.3134 74.6946 98.1046 74.7993 97.8436C74.9213 97.5825 75.0608 97.4433 75.3223 97.5129C75.6362 97.5825 75.7931 97.7739 75.7756 97.9306Z" fill="#363636"/>
</g>
<path d="M71.6957 98.0698C71.8526 97.8784 72.3931 97.5478 72.8987 96.8344C73.4044 96.1209 73.6659 95.6859 74.0495 95.4945C74.4331 95.3031 75.4269 94.2765 75.5838 94.2069C75.7408 94.1373 76.1069 94.2939 76.229 94.6419C76.351 94.9725 76.229 95.5119 75.7233 96.1905C75.2177 96.8692 75.0956 96.904 74.9387 97.0954C74.7818 97.2868 74.468 97.4086 74.3808 97.861C74.311 98.1742 75.0957 99.5488 73.9449 101.602C71.748 101.915 71.7131 98.0524 71.7131 98.0524L71.6957 98.0698Z" fill="#FFD6D2"/>
<g style="mix-blend-mode:screen">
<path d="M75.4095 94.3635C75.1479 94.5723 74.7992 94.9203 74.7818 95.0421C74.7644 95.1639 74.869 95.3553 75.0433 95.4771C75.2177 95.5989 75.4095 95.5641 75.6536 95.3901C75.8977 95.2161 76.0197 94.9377 75.9849 94.6941C75.9674 94.4679 75.7931 94.2069 75.6187 94.2417C75.5315 94.2417 75.4792 94.2939 75.392 94.3635H75.4095Z" fill="#363636"/>
</g>
<path d="M77.5017 95.8948C77.7981 96.034 77.8853 96.1906 77.9899 96.5908C78.0945 96.991 77.9899 97.5304 77.9899 97.5304C77.6586 97.687 77.6935 97.5826 77.4494 98.0003C77.1879 98.4005 76.8043 99.0443 76.6299 99.2183C76.4556 99.3923 76.194 99.4619 75.8802 99.3053C75.5663 99.1487 75.6361 98.8529 75.8104 98.4701C75.9848 98.0873 76.1592 97.3216 76.3858 96.991C76.595 96.6604 76.7694 96.0514 76.9263 95.9296C77.0832 95.8252 77.3099 95.8078 77.5191 95.9122L77.5017 95.8948Z" fill="#FFD6D2"/>
<path d="M77.6412 97.7044C77.6412 97.7044 77.6238 97.7218 77.5889 97.7566C77.5541 97.7914 77.5192 97.8436 77.4843 97.9306C77.3971 98.0698 77.2577 98.296 77.1007 98.5397C77.0136 98.6615 76.9264 98.8007 76.8392 98.9399C76.7346 99.0791 76.6648 99.1835 76.5777 99.2531C76.4556 99.3575 76.2813 99.4097 76.1592 99.3923C75.9674 99.3923 75.7233 99.2879 75.6361 99.1139C75.6013 99.0095 75.6013 98.9051 75.6361 98.8181C75.6884 98.6093 75.7756 98.4875 75.8454 98.2612C75.9151 98.0872 75.9674 97.8958 76.0372 97.7218C76.0895 97.5478 76.1592 97.3738 76.229 97.2172C76.2638 97.1476 76.2987 97.0606 76.3336 96.991C76.351 96.9562 76.3684 96.9214 76.4033 96.8866C76.4207 96.8518 76.4382 96.817 76.4556 96.7822C76.5254 96.643 76.5777 96.5212 76.63 96.4168C76.6823 96.3124 76.7172 96.208 76.7695 96.1384C76.8043 96.0688 76.8392 95.9992 76.8741 95.9644C76.8741 95.947 76.9089 95.9296 76.9089 95.9296C76.9089 95.9296 76.8915 95.947 76.8741 95.9644C76.8392 95.9992 76.8218 96.0688 76.7695 96.1384C76.7346 96.208 76.6997 96.3124 76.6474 96.4168C76.5951 96.5212 76.5428 96.6604 76.4905 96.7822C76.4905 96.817 76.4556 96.8518 76.4382 96.8866C76.4207 96.9214 76.4033 96.9562 76.3859 96.991C76.351 97.0606 76.3161 97.1302 76.2813 97.2172C76.2115 97.3738 76.1592 97.5478 76.1069 97.7218C76.0546 97.8958 75.9849 98.0872 75.9325 98.2612C75.8454 98.4875 75.7756 98.6093 75.7233 98.8007C75.7059 98.8877 75.6884 98.9921 75.7233 99.0791C75.7931 99.2357 76.0197 99.3401 76.1941 99.3401C76.2987 99.3401 76.4556 99.3053 76.5777 99.2183C76.6648 99.1487 76.7346 99.0617 76.8392 98.9225C76.9438 98.7833 77.031 98.6441 77.1007 98.5223C77.2577 98.2786 77.3971 98.0698 77.4843 97.9132C77.5366 97.8436 77.5715 97.7914 77.6064 97.7566C77.6412 97.7218 77.6587 97.7044 77.6587 97.7044H77.6412Z" fill="#EFC1BF"/>
<g style="mix-blend-mode:screen">
<path d="M76.595 98.6788C76.5602 98.9398 76.3335 99.3226 76.0894 99.3574C75.8453 99.3922 75.6361 99.1834 75.6884 98.992C75.7407 98.8006 75.9325 98.4352 76.0371 98.296C76.1592 98.1568 76.6299 98.383 76.595 98.6788Z" fill="#363636"/>
</g>
<path d="M30.8786 91.5619C30.8786 91.5619 37.2776 95.9642 43.6939 91.9969L43.537 94.2938C43.537 94.2938 36.5278 99.5836 31.5063 94.2938L30.8612 91.5793L30.8786 91.5619Z" fill="#684D2A"/>
<path d="M41.2877 90.5354C41.1133 90.2048 40.2241 89.6827 40.2241 89.6827C40.2241 89.6827 36.9113 91.8752 34.8016 90.0482C34.8016 90.0482 33.7206 89.7871 33.5636 90.953C33.4067 92.1188 33.5636 92.6408 33.5636 92.6408L33.9298 93.0585L34.2611 91.2662L35.0457 91.4576C35.0457 91.4576 38.2539 92.6582 39.6313 91.4228C39.6313 91.4228 39.8754 92.2928 40.2415 91.7882" fill="#684D2A"/>
<path d="M239.48 148.688C239.48 148.688 246.332 120.986 283.104 120.621C319.876 120.256 327.094 148.688 327.094 148.688L315.203 207.328H247.901L239.497 148.688H239.48Z" fill="#7FE4FF"/>
<path d="M348 160.555C348 160.555 345.053 146.165 327.042 149.036C327.042 149.036 318.586 150.48 316.738 165.584L311.594 207.328H325.944C325.944 207.328 347.285 191.494 348.017 160.555H348Z" fill="#3479F3"/>
<path d="M218.923 160.555C218.923 160.555 221.8 146.165 239.48 149.036C239.48 149.036 247.779 150.48 249.575 165.584L254.614 207.328H240.561C240.561 207.328 219.655 191.494 218.923 160.555Z" fill="#3479F3"/>
<path d="M257.16 207.328L252.818 177.208C252.818 177.208 275.049 167.289 313.39 177.208L309.293 207.328H257.16Z" fill="#3479F3"/>
<path d="M272.468 157.319C274.558 157.319 276.252 155.628 276.252 153.543C276.252 151.458 274.558 149.767 272.468 149.767C270.379 149.767 268.685 151.458 268.685 153.543C268.685 155.628 270.379 157.319 272.468 157.319Z" fill="white"/>
<path d="M286.713 163.792L313.39 167.394C313.39 167.394 318.08 178.182 297.89 179.992H280.942C280.942 179.992 277.699 180.357 280.942 184.673L294.995 215.976H290.671L268.685 182.515C268.685 182.515 265.076 177.834 266.157 176.39C266.157 176.39 262.199 175.676 263.28 178.548L267.238 217.055H261.466L254.614 175.311C254.614 175.311 252.086 167.759 257.857 165.95L286.696 163.792H286.713Z" fill="#0E212B"/>
<path d="M262.181 217.038L263.262 221.718H266.157L266.749 217.038H262.181Z" fill="#F3DFD2"/>
<path d="M291.037 215.959L291.979 220.64H294.472L294.995 215.959H291.037Z" fill="#F3DFD2"/>
<path d="M262.46 218.03L266.871 217.038H262.181L262.46 218.03Z" fill="#F3B09C"/>
<path d="M294.769 216.69L291.037 215.959H294.995L294.769 216.69Z" fill="#F3B09C"/>
<path d="M260.141 218.673C260.141 218.673 262.6 220.814 267.516 220.814L269.487 225.929C269.487 225.929 256.218 227.635 248.86 225.929L256.724 222.519L260.159 218.673H260.141Z" fill="#3479F3"/>
<path d="M269.487 226.695C269.487 226.695 257.491 229.653 248.86 226.695V225.842C248.86 225.842 262.774 227.113 269.487 225.842V226.695Z" fill="#004BB7"/>
<path d="M290.008 218.934C290.008 218.934 292.17 220.727 296.32 220.553L298.168 224.972C298.168 224.972 287.009 226.921 280.698 225.686L287.236 222.414L290.008 218.917V218.934Z" fill="#3479F3"/>
<path d="M298.186 225.651C298.186 225.651 288.143 228.661 280.715 226.364L280.681 225.616C280.681 225.616 292.502 226.243 298.151 224.903L298.186 225.651Z" fill="#004BB7"/>
<path d="M268.162 175.085C268.162 175.085 277.368 170.648 292.92 166.837C292.92 166.837 270.376 174.128 268.162 175.085Z" fill="#26374F"/>
<path d="M256.724 188.135L261.466 208.407V217.038L256.724 188.135Z" fill="#26374F"/>
<path d="M280.576 116.306L278.414 126.398C278.414 126.398 284.185 127.146 286.713 130.139L284.325 165.845L313.39 169.029L316.267 142.476L318.795 143.59L327.094 136.107L316.633 123.388C316.633 123.388 314.471 122.274 310.496 121.526C310.496 121.526 303.643 123.022 298.238 120.778C298.238 120.778 287.062 117.036 280.576 116.288V116.306Z" fill="#7A76FF"/>
<path d="M280.262 117.437L274.386 115.035C274.386 115.035 271.457 113.504 269.225 114.983L251.441 128.364C251.441 128.364 246.995 132.453 246.96 135.464L246.925 139.222C246.925 139.222 249.104 142.25 250.621 138.126L251.388 134.002L263.611 125.093L269.156 122.135L278.693 125.215L280.227 117.419L280.262 117.437Z" fill="#FFDFCE"/>
<path d="M319.963 142.267L321.236 144.007C321.236 144.007 305.37 153.003 304.655 152.638C303.94 152.273 299.964 157.319 300.697 160.19C300.697 160.19 303.225 163.792 306.102 156.24L329.169 149.924C329.169 149.924 334.208 148.323 331.698 144.373L326.659 136.821L319.981 142.267H319.963Z" fill="#FFDFCE"/>
<path d="M287.341 151.716C287.341 151.716 296.652 154.865 299.18 153.926C299.18 153.926 294.42 156.484 287.341 154.1V151.716Z" fill="#0C007C"/>
<path d="M251.72 207.084L248.25 217.159H251.72L259.915 207.084H251.72Z" fill="#10194F"/>
<path d="M314.576 207.415L318.237 217.473H314.576L305.927 207.415H314.576Z" fill="#10194F"/>
<path d="M326.345 135.411C326.345 135.411 319.981 138.7 319.074 140.44C319.074 140.44 320.434 136.804 325.264 134.298L326.345 135.411Z" fill="#4242C6"/>
<path d="M285.597 148.514L285.283 150.011L284.464 164.714L288.317 166.315L287.969 160.225C292.868 161.599 295.17 160.503 295.17 160.503C292.171 160.468 287.794 154.865 287.794 154.865C288.439 155.405 289.869 154.691 289.869 154.691C288.003 153.961 287.48 151.316 287.48 151.316C287.01 149.262 298.168 150.393 298.168 150.393C298.168 150.393 292.624 148.479 288.753 148.81C287.306 148.932 286.277 148.775 285.58 148.514" fill="#0C007C"/>
<path d="M315.848 146.844C315.848 146.844 308.822 145.417 307.026 146.182C307.026 146.182 310.374 144.216 315.709 145.295L315.848 146.844Z" fill="#4242C6"/>
<path d="M278.972 116.915L278.832 125.284L280.402 117.419L278.972 116.915Z" fill="#E9C7B6"/>
<path d="M319.789 142.563L327.635 138.335L326.449 136.96L319.789 142.563Z" fill="#E9C7B6"/>
<path d="M293.252 179.922C293.252 179.922 307.514 183.193 313.495 177.208C313.495 177.208 312.571 175.955 310.199 176.425C310.199 176.425 304.219 179.174 293.252 179.922Z" fill="#03285E"/>
<path d="M320.922 153.543C320.922 153.543 330.338 155.84 335.795 149.071L331.471 148.531C331.471 148.531 325.333 151.664 323.049 151.229C323.049 151.229 320.783 153.473 320.94 153.543H320.922Z" fill="#03285E"/>
<path d="M305.596 135.742L312.815 136.943L311.612 142.65C311.612 142.65 307.706 145.643 305.596 141.745V135.742Z" fill="#DEDEFF"/>
<path d="M298.482 116.671L298.378 120.673C298.378 120.673 302.144 123.318 307.183 121.735L307.34 117.384C307.34 117.384 300.4 118.063 298.5 116.671H298.482Z" fill="#FFDFCE"/>
<path d="M303.12 93.0758C314.785 93.0758 311.524 108.284 311.524 108.284C309.188 119.786 303.347 118.22 303.347 118.22C294.001 117.437 296.268 104.299 297.977 97.7914C297.977 97.7914 300.174 93.0758 303.12 93.0932V93.0758Z" fill="#FFDFCE"/>
<path d="M296.425 93.0758C302.144 90.3091 306.241 92.3798 306.241 92.3798C312.553 93.5108 315.343 101.341 314.244 102.594C313.146 103.847 312.553 110.285 312.553 110.285C310.687 116.915 308.072 115.714 308.072 115.714L310.182 106.109C310.147 102.542 307.043 101.741 307.043 101.741L301.15 98.6788C301.15 98.6788 291.648 98.5918 296.407 93.0758" fill="#B2906B"/>
<path d="M311.35 95.2509C311.35 95.2509 314.715 98.6614 315.97 98.47C315.97 98.47 314.279 98.6788 312.082 97.5303L311.35 95.2509Z" fill="#B2906B"/>
<path d="M313.338 104.282C313.338 104.282 313.059 109.763 313.896 110.877C313.896 110.877 312.797 109.398 312.274 106.509L313.32 104.282H313.338Z" fill="#B2906B"/>
<path d="M296.425 93.0758C296.425 93.0758 298.971 104.804 307.532 101.01L296.425 93.0758Z" fill="#B2906B"/>
<path d="M297.977 97.7914C297.977 97.7914 303.539 102.055 307.427 101.08C307.427 101.08 302.597 103.934 297.977 97.7914Z" fill="#876542"/>
<path d="M309.746 109.606C309.502 112.721 307.776 115.035 307.776 115.035C309.502 116.48 310.775 114.339 310.775 114.339V109.45C310.775 109.45 309.973 106.753 309.746 109.606Z" fill="#876542"/>
<path d="M305.718 108.493C306.19 108.493 306.573 108.072 306.573 107.553C306.573 107.034 306.19 106.614 305.718 106.614C305.246 106.614 304.864 107.034 304.864 107.553C304.864 108.072 305.246 108.493 305.718 108.493Z" fill="#001C44"/>
<path d="M298.814 107.188C299.276 107.188 299.651 106.783 299.651 106.283C299.651 105.783 299.276 105.378 298.814 105.378C298.352 105.378 297.977 105.783 297.977 106.283C297.977 106.783 298.352 107.188 298.814 107.188Z" fill="#001C44"/>
<path d="M295.449 104.56C295.449 104.56 299.511 103.586 301.377 105.674L303.242 106.039C303.242 106.039 305.108 104.665 309.415 106.457L309.345 107.17C309.345 107.17 306.642 104.699 303.382 106.335L303.347 106.77C303.347 106.77 302.022 106.178 301.464 106.561L301.342 106.109C301.342 106.109 299.494 103.742 295.919 105.047C295.919 105.047 294.681 108.945 299.197 108.597C299.197 108.597 300.941 108.371 301.272 106.822L301.621 106.857C301.621 106.857 301.447 108.702 298.308 108.928C298.308 108.928 295.379 108.876 295.466 106.144V104.56H295.449Z" fill="#2B2A2A"/>
<path d="M303.347 106.753C303.347 106.753 302.929 109.293 305.98 109.937C305.98 109.937 309.048 110.285 309.031 106.892L309.362 107.153C309.362 107.153 309.136 111.155 304.951 109.815C304.951 109.815 302.859 109.241 302.981 106.614L303.347 106.753Z" fill="#2B2A2A"/>
<path d="M301.621 106.84L301.656 106.352L301.359 105.952L301.272 106.805L301.621 106.84Z" fill="#2B2A2A"/>
<path d="M296.774 112.251C296.774 112.251 301.464 115.766 308.647 112.965C308.647 112.965 312.222 111.486 310.129 115.383C308.037 119.281 300.278 119.177 297.419 115.331L296.791 112.251H296.774Z" fill="#876542"/>
<path d="M298.726 113.243C298.726 113.243 301.289 109.78 306.154 113.713C306.154 113.713 301.987 116.306 298.726 113.243Z" fill="#876542"/>
<path d="M301.935 106.979C301.935 106.979 300.365 110.268 301.708 111.364C301.708 111.364 303.085 111.781 302.876 109.067C302.876 109.067 302.632 107.031 301.935 106.979Z" fill="#F4C5A2"/>
<path d="M301.255 110.685C301.481 110.981 301.9 111.312 302.562 110.998C302.562 110.998 301.9 112.199 301.255 110.824L301.202 110.442L301.255 110.685Z" fill="#D39766"/>
<path d="M298.482 116.671C298.482 116.671 299.354 119.647 307.287 119.003L307.34 117.524C307.34 117.524 302.214 118.916 298.5 116.688L298.482 116.671Z" fill="#E9C7B6"/>
<path d="M278.03 142.511L313.651 148.027L311.629 169.238L276.531 164.836L278.03 142.511Z" fill="#E2E2E2"/>
<path d="M296.547 156.814C296.652 156.066 297.314 155.788 297.349 155.788C297.07 155.231 296.547 155.092 296.355 155.057C295.902 154.952 295.414 155.196 295.187 155.179C294.96 155.161 294.629 154.831 294.245 154.778C293.74 154.709 293.234 154.935 292.92 155.353C292.275 156.188 292.467 157.58 292.885 158.38C293.077 158.78 293.321 159.215 293.722 159.25C294.106 159.285 294.28 159.076 294.716 159.146C295.152 159.215 295.257 159.459 295.658 159.511C296.059 159.563 296.373 159.233 296.669 158.92C297.018 158.537 297.192 158.154 297.192 158.137C297.192 158.137 296.442 157.719 296.564 156.832L296.547 156.814ZM296.111 154.517C296.355 154.291 296.547 153.961 296.547 153.612C296.251 153.578 295.867 153.717 295.623 153.943C295.396 154.135 295.187 154.465 295.187 154.813C295.518 154.883 295.884 154.744 296.129 154.517H296.111Z" fill="white"/>
<path d="M279.042 124.188C279.042 124.188 286.957 127.042 287.254 129.443C287.254 129.443 282.441 126.45 278.536 126.746L279.042 124.188Z" fill="#4242C6"/>
<path d="M300.418 113.4C300.418 113.4 301.621 114.131 304.009 113.765C304.009 113.765 304.01 114.844 302.004 114.844C299.999 114.844 300.4 113.4 300.4 113.4H300.418Z" fill="white"/>
</g>
<defs>
<clipPath id="clip0_1_396">
<rect width="348" height="228" fill="white"/>
</clipPath>
</defs>
</svg>
